<svg xmlns="http://www.w3.org/2000/svg" version="1.1" xmlns:xlink="http://www.w3.org/1999/xlink" width="1500" height="1500" viewBox="0 0 1500 1500"><rect width="1500" height="1500" x="0" y="0" id="background" stroke="transparent" fill="#33363d"></rect><svg xml:space="preserve" width="1000" height="1000" data-version="2" data-id="lg_uxJEzQcPIk8FQet3L4" viewBox="0 0 543 165" x="250" y="250"><rect width="100%" height="100%" fill="transparent"></rect><g transform="translate(380.17 76.92)"><filter id="a" width="140%" height="140%" x="-20%" y="-20%"><feGaussianBlur in="SourceAlpha"></feGaussianBlur><feOffset result="oBlur"></feOffset><feFlood flood-color="#000" flood-opacity="1"></feFlood><feComposite in2="oBlur" operator="in"></feComposite><feMerge><feMergeNode></feMergeNode><feMergeNode in="SourceGraphic"></feMergeNode></feMerge></filter><g filter="url(#a)"><path fill="#979699" d="M-107.65 20.59q-2.38 0-4.02-1.19-1.73-1.19-4.11-3.38-2.37-2.19-5.29-5.39-1.1-1.27-1.1-2.28 0-1 1.1-2.28 5.66-6.39 10.31-9.41 1.1-.73 3.11-.73 6.21 0 10.73-4.65 4.52-4.66 4.33-15.07-.09-11.23-5.52-15.7-5.43-4.48-14.84-4.48h-4.38q-6.03 0-8.22 2.56-2.19 2.56-2.19 8.76v92.13q0 2.74-1.14 3.79-1.14 1.05-3.88 1.05h-19.45q-2.74 0-3.88-1.05-1.14-1.05-1.14-3.79V-42.14q0-9.13 1.69-14.47 1.69-5.35 6.57-7.67 4.89-2.33 14.29-2.33h21.73q26.21 0 38.81 10.27 12.6 10.27 12.6 31.46 0 15.88-6.62 25.93-6.62 10.04-17.17 14.79-10.54 4.75-22.32 4.75m88.11 46.02q-13.42 0-21.32-7.54-7.9-7.53-7.9-20.77 0-6.85 2.51-12.74 2.51-5.89 8.77-10.41 6.25-4.52 17.53-7.25Q-8.67 5.16 8.86 4.7q0-8.31-4.16-11.96-4.15-3.65-12.46-3.65-7.49 0-12.24 2.55-4.74 2.56-5.93 3.47-1.28 1.1-3.11.82-2.46-.36-5.25-1.27-2.78-.92-5.98-2.1-.45-.19-1-.6t-.64-1.23q0-.46.09-1.14.09-.69.46-2.51.36-1.83 1.09-4.52.73-2.7 1.37-4.16.82-1.55 2.74-2.92 1.55-1.28 9.41-4.11 7.85-2.83 22.73-2.83 41 0 41 39.9v51.68q0 1.74-.96 2.97-.96 1.23-3.24 1.23h-13.7q-1.46 0-2.6-.41-1.14-.41-2.14-1.59l-5.67-7.31h-.63q-4.2 6.12-11.28 8.86-7.08 2.74-16.3 2.74M-9.5 45.42q8.4 0 12.7-4.29 4.29-4.29 5.47-8.86V22.14q-12.69 0-19.03 1.96-6.35 1.97-8.45 5.12-2.1 3.15-2.1 6.8 0 5.29 3.29 7.35 3.28 2.05 8.12 2.05m115.97 21.19q-23.01 0-36.44-12.24-13.42-12.23-13.42-36.43 0-24.84 13.93-37.12 13.92-12.28 37.2-12.28 22.47 0 35.98 12.1 13.51 12.1 13.51 35.66 0 24.56-13.51 37.43-13.51 12.88-37.25 12.88m.91-22.1q10.04 0 15.16-6.25 5.11-6.26 5.11-21.42 0-14.42-5.16-20.31-5.16-5.89-15.29-5.89-9.77 0-15.39 6.34-5.61 6.35-5.61 20.59 0 14.89 5.34 20.91 5.34 6.03 15.84 6.03"></path></g></g><rect width="71.912" height="71.912" x="-35.956" y="-35.956" fill="#e3e4e6" rx="10" ry="10" transform="translate(86.781 82.5)scale(2.2578)"></rect></svg></svg>